HIERARCHY
ROOT hip
{
	OFFSET 0.000000 0.000000 0.000000 
	CHANNELS 6 Xposition Yposition Zposition Xrotation Zrotation Yrotation
	JOINT abdomen
	{
		OFFSET 0.000000 3.402643 0.000000 
		CHANNELS 3 Xrotation Zrotation Yrotation
		JOINT chest
		{
			OFFSET 0.000000 8.438565 -0.680529 
			CHANNELS 3 Xrotation Zrotation Yrotation
			JOINT neck
			{
				OFFSET 0.000000 10.207942 -0.272212 
				CHANNELS 3 Xrotation Zrotation Yrotation
				JOINT head
				{
					OFFSET 0.000000 3.130431 0.000000 
					CHANNELS 3 Xrotation Zrotation Yrotation
					End Site
					{
						OFFSET 0.000000 3.130435 0.000000 
					}
				}
			}
			JOINT lCollar
			{
				OFFSET 3.470700 6.669187 -0.816635 
				CHANNELS 3 Yrotation Zrotation Xrotation
				JOINT lShldr
				{
					OFFSET 3.198488 0.000000 0.000000 
					CHANNELS 3 Zrotation Yrotation Xrotation
					JOINT lForeArm
					{
						OFFSET 10.139888 0.000000 0.000000 
						CHANNELS 3 Yrotation Zrotation Xrotation
						JOINT lHand
						{
							OFFSET 8.370511 0.000000 0.000000 
							CHANNELS 3 Zrotation Yrotation Xrotation
							End Site
							{
								OFFSET 4.083176 0.000000 0.000000 
							}
						}
					}
				}
			}
			JOINT rCollar
			{
				OFFSET -3.470700 6.669187 -0.816635 
				CHANNELS 3 Yrotation Zrotation Xrotation
				JOINT rShldr
				{
					OFFSET -3.198488 0.000000 0.000000 
					CHANNELS 3 Zrotation Yrotation Xrotation
					JOINT rForeArm
					{
						OFFSET -10.139888 0.000000 0.000000 
						CHANNELS 3 Yrotation Zrotation Xrotation
						JOINT rHand
						{
							OFFSET -8.370511 0.000000 0.000000 
							CHANNELS 3 Zrotation Yrotation Xrotation
							End Site
							{
								OFFSET -4.083176 0.000000 0.000000 
							}
						}
					}
				}
			}
		}
	}
	JOINT lThigh
	{
		OFFSET 5.308129 -1.633274 1.361059 
		CHANNELS 3 Xrotation Zrotation Yrotation
		JOINT lShin
		{
			OFFSET -2.041588 -20.007561 0.000000 
			CHANNELS 3 Xrotation Zrotation Yrotation
			JOINT lFoot
			{
				OFFSET 0.000000 -19.190928 -1.224953 
				CHANNELS 3 Xrotation Yrotation Zrotation
				End Site
				{
					OFFSET 0.000000 -2.449906 4.627600 
				}
			}
		}
	}
	JOINT rThigh
	{
		OFFSET -5.308129 -1.633274 1.361059 
		CHANNELS 3 Xrotation Zrotation Yrotation
		JOINT rShin
		{
			OFFSET 2.041588 -20.007561 0.000000 
			CHANNELS 3 Xrotation Zrotation Yrotation
			JOINT rFoot
			{
				OFFSET 0.000000 -19.190928 -1.224953 
				CHANNELS 3 Xrotation Yrotation Zrotation
				End Site
				{
					OFFSET 0.000000 -2.449906 4.627600 
				}
			}
		}
	}
}
MOTION
Frames: 8
Frame Time: 0.016667
-0.069193 44.509293 1.676613 0.157612 -7.539030 -0.129203 -16.945000 3.851920 0.528646 18.983900 1.366670 0.636319 16.917801 9.761390 -14.345600 11.470900 7.703030 -8.144020 2.000000 -2.000000 0.000000 -87.993301 11.420400 161.029999 28.760099 -0.334700 0.065840 0.046315 -0.023164 -145.223007 -2.000000 2.000000 0.000000 53.094501 2.193170 124.192001 -108.349998 0.174881 0.110740 -0.055973 -0.012667 -128.884995 -23.410782 10.601893 -8.299267 70.277267 0.778632 4.161745 -1.398814 -6.539557 0.237835 -1.767045 19.845863 -2.301105 10.290132 -1.446099 -1.361526 -5.372732 -4.607743 -0.096912 
0.219816 44.373970 2.993464 0.936142 -7.684530 -4.578500 -17.320000 3.021660 0.865994 18.212900 -0.331754 0.746000 17.999500 10.340900 -13.494900 11.955200 7.770760 -7.784730 2.000000 -2.000000 0.000000 -88.139198 11.994300 160.013000 26.172199 -0.337547 0.060361 0.046006 -0.020943 -144.421997 -2.000000 2.000000 0.000000 55.022701 2.111890 126.477997 -109.024002 0.173467 0.110262 -0.055634 -0.010118 -129.802994 -25.811424 9.615477 -10.241576 67.650940 0.925074 4.097072 -4.956593 -4.802920 0.102148 -0.805481 19.777311 -0.010187 11.664614 -1.698752 -1.357132 -6.226117 -2.841585 0.437408 
0.537419 44.307018 4.262437 2.211470 -8.441070 -9.163460 -16.957300 3.966130 1.277750 19.179701 0.195256 1.040230 18.617800 11.834700 -12.644200 12.635500 8.596590 -7.479980 2.000000 -2.000000 0.000000 -90.237297 10.683400 158.990005 23.623301 -0.340108 0.054846 0.045135 -0.012676 -141.453003 -2.000000 2.000000 0.000000 54.144901 2.755660 127.005997 -109.219002 0.173058 0.110120 -0.055178 -0.006042 -131.266998 -28.405752 9.628184 -11.960968 63.639912 1.195861 3.966077 -7.168830 -2.473630 0.335115 0.179731 20.054703 1.817033 11.973353 -1.806167 -1.330008 -6.841657 -0.374627 1.092780 
0.678147 44.292629 5.590152 2.683870 -8.223520 -12.728200 -16.971399 3.850580 0.802953 18.935499 0.400230 0.779689 19.189600 11.375800 -11.434500 12.803600 8.602100 -6.934660 2.000000 -2.000000 0.000000 -91.086098 10.486100 158.091995 22.539301 -0.341121 0.052466 0.044873 -0.008774 -140.057007 -2.000000 2.000000 0.000000 54.139400 3.982820 129.253998 -109.834000 0.171773 0.109665 -0.054719 -0.010138 -133.298996 -29.569481 8.733496 -13.499086 58.145039 1.574860 3.745347 -8.563501 -0.877041 0.643645 1.546739 19.475872 4.291373 12.569831 -2.026089 -1.287934 -7.356072 0.924985 1.533859 
0.822103 44.278625 6.857495 3.964030 -7.959670 -16.379999 -16.924400 3.842320 0.614259 19.101500 0.331924 0.684928 18.528700 9.847600 -11.522900 12.453800 8.021080 -6.829530 2.000000 -2.000000 0.000000 -91.155998 9.983020 160.203003 23.183901 -0.340524 0.053883 0.045068 -0.011804 -141.141006 -2.000000 2.000000 0.000000 54.005402 5.396790 130.595001 -110.283997 0.170838 0.109323 -0.054507 -0.005905 -134.811996 -31.262199 8.249104 -14.753203 51.282944 1.991174 3.423337 -9.241248 -0.050134 0.924381 1.912667 18.859154 5.862875 13.194625 -2.194837 -1.271970 -7.882831 2.907136 2.110142 
0.872174 44.287617 8.174796 4.829660 -7.775370 -19.884001 -17.375299 3.305110 0.621453 18.183500 -0.595192 0.639899 18.182600 8.983930 -11.479700 12.158500 7.592410 -6.726980 2.000000 -2.000000 0.000000 -89.507599 10.261900 162.595001 24.658501 -0.339097 0.057099 0.045385 -0.015509 -142.468994 -2.000000 2.000000 0.000000 55.004002 5.970810 131.962997 -110.849998 0.169663 0.108883 -0.054406 -0.001613 -136.345993 -31.882196 8.285521 -15.224770 43.310371 2.458767 2.983672 -9.167159 1.199206 1.268315 2.753426 18.275137 7.672808 13.655840 -2.385360 -1.233566 -8.204252 4.186340 2.574804 
0.818011 44.230434 9.571440 5.752910 -7.530680 -23.169701 -16.562000 3.769880 0.536735 19.648399 0.195288 0.621904 17.456600 8.645740 -11.392000 12.127500 7.525350 -6.536610 2.000000 -2.000000 0.000000 -89.076897 7.800490 162.404999 25.517900 -0.338228 0.058956 0.045234 -0.013875 -141.882996 -2.000000 2.000000 0.000000 54.309898 7.290060 131.399002 -111.553001 0.168211 0.108319 -0.054421 0.002680 -137.878998 -32.311565 8.389910 -16.085314 35.881645 2.867230 2.511836 -10.992360 1.924224 1.589065 3.810801 17.595119 9.102831 13.570723 -2.566826 -1.175244 -8.131292 6.011730 3.041456 
0.728021 44.041149 10.895155 6.424070 -6.929300 -25.133900 -17.361900 3.491490 0.257930 18.632799 0.273283 0.469336 16.911200 8.616500 -11.381000 11.585600 7.526470 -6.608270 2.000000 -2.000000 0.000000 -86.822197 8.604390 163.770004 28.066700 -0.335487 0.064385 0.045824 -0.019505 -143.904007 -2.000000 2.000000 0.000000 55.208302 5.688270 131.542999 -113.008003 0.165227 0.107097 -0.054718 0.010112 -140.535004 -33.047375 7.724783 -17.265297 29.312784 3.157431 2.044529 -13.969327 1.056356 1.563537 4.141869 16.697577 9.046124 14.545585 -2.776156 -1.192405 -9.122351 7.552447 3.568513 
